<?xml version="1.0" encoding="UTF-8" standalone="no"?>
<!-- Created with Inkscape (http://www.inkscape.org/) -->

<svg
   width="30mm"
   height="30mm"
   viewBox="0 0 30 30"
   version="1.1"
   id="svg5"
   sodipodi:docname="logo.svg"
   inkscape:version="1.2.1 (9c6d41e410, 2022-07-14)"
   xmlns:inkscape="http://www.inkscape.org/namespaces/inkscape"
   xmlns:sodipodi="http://sodipodi.sourceforge.net/DTD/sodipodi-0.dtd"
   xmlns="http://www.w3.org/2000/svg"
   xmlns:svg="http://www.w3.org/2000/svg">
  <sodipodi:namedview
     id="namedview7"
     pagecolor="#ffffff"
     bordercolor="#666666"
     borderopacity="1.0"
     inkscape:showpageshadow="2"
     inkscape:pageopacity="0.0"
     inkscape:pagecheckerboard="0"
     inkscape:deskcolor="#d1d1d1"
     inkscape:document-units="mm"
     showgrid="false"
     inkscape:zoom="2.9825758"
     inkscape:cx="20.11684"
     inkscape:cy="66.385573"
     inkscape:window-width="1536"
     inkscape:window-height="801"
     inkscape:window-x="1912"
     inkscape:window-y="591"
     inkscape:window-maximized="1"
     inkscape:current-layer="layer1" />
  <defs
     id="defs2" />
  <g
     inkscape:label="Calque 1"
     inkscape:groupmode="layer"
     id="layer1">
    <path
       style="fill:#ffa500;fill-opacity:1;stroke:#000000;stroke-width:0.61409;stroke-linecap:butt;stroke-linejoin:miter;stroke-dasharray:none;stroke-opacity:1"
       d="M 4.6099515,14.678857 C 3.7914481,14.677715 3.5989694,12.583146 2.3451152,12.620162 1.0912609,12.65718 0.60360261,14.6118 0.60360261,16.311684 c 0,1.699885 0.59637959,3.696474 1.74151259,3.691523 1.1451329,-0.005 1.3299931,-1.968315 2.2899501,-1.928177 0.959957,0.04014 0.9041519,0.662427 0.9886383,2.143226 v 5.559069 l 5.6741924,0.0029 c 1.365672,-0.08449 2.030321,0.05922 2.028102,-0.969802 -0.0022,-1.029024 -1.93873,-0.662987 -1.928177,-2.289952 0.01056,-1.626964 1.914526,-1.741511 3.691523,-1.741511 1.776997,0 3.718533,0.540131 3.691522,1.741511 -0.02701,1.201381 -2.103636,1.354246 -2.058695,2.264838 0.04494,0.910591 1.185056,1.003929 2.076362,0.994916 l 5.756517,-0.0029 6.7e-5,-5.688048 c -0.0089,-0.959776 -0.123322,-2.144832 0.994985,-2.144832 1.164086,0 0.964907,2.058695 2.264838,2.058695 1.29993,0 1.741512,-2.912525 1.741512,-3.691522 0,-0.778997 -0.458247,-3.742519 -1.741512,-3.691523 -1.283265,0.05099 -0.985754,1.928178 -2.289952,1.928178 -1.304197,0 -0.88531,-0.662427 -0.969871,-2.037803 l -6.7e-5,-5.6644908 c -2.419256,0 -3.19055,0.00342 -5.609796,-0.00459 -1.081636,0.00441 -2.290821,-0.076115 -2.266692,-0.9995149 0.02413,-0.9234003 2.044081,-0.9235213 2.058695,-2.264837 0.01462,-1.3413156 -2.912525,-1.7415126 -3.691522,-1.7415126 -0.778998,0 -3.70206,0.4168302 -3.691524,1.7415126 0.01054,1.3246824 1.969567,1.3592795 1.928179,2.2899506 -0.04139,0.9306712 -0.662427,0.8853189 -2.131489,0.9744013 l -5.5271974,0.00459 v 5.6838558 c 0.00901,0.963966 -0.1952487,2.150124 -1.0137521,2.149022 z"
       id="path1013-8"
       sodipodi:nodetypes="zzzzzccczzzzzcccszczzccczzczzcccz" />
    <path
       id="path3446"
       style="fill:#3e63dd;fill-opacity:1;fill-rule:evenodd;stroke:#3e63dd;stroke-width:0.666454;stroke-linecap:round;stroke-linejoin:round;stroke-dasharray:none;stroke-opacity:1;paint-order:markers stroke fill;stop-color:#000000"
       d="m 8.8543691,11.653634 v 0.187756 0.716695 5.888059 a 1.1081331,1.1235776 0 0 0 -0.5225017,-0.13304 1.1081331,1.1235776 0 0 0 -1.108302,1.123859 1.1081331,1.1235776 0 0 0 1.108302,1.123324 1.1081331,1.1235776 0 0 0 1.107767,-1.123324 1.1081331,1.1235776 0 0 1 0,-5.36e-4 1.1081331,1.1235776 0 0 0 0,-0.02843 v -6.802166 c 1.4125586,0.301085 1.6180506,1.885076 4.3908296,1.849138 -2.014204,-0.06321 -2.261536,-2.801333 -4.9760949,-2.801332 z" />
    <path
       id="ellipse4255"
       style="fill:#3e63dd;fill-opacity:1;fill-rule:evenodd;stroke:#3e63dd;stroke-width:0.666454;stroke-linecap:round;stroke-linejoin:round;stroke-dasharray:none;stroke-opacity:1;paint-order:markers stroke fill;stop-color:#000000"
       d="m 15.287808,9.9207105 v 0.1882935 0.716159 5.888057 a 1.1081331,1.1235776 0 0 0 -0.5225,-0.13304 1.1081331,1.1235776 0 0 0 -1.108302,1.12386 1.1081331,1.1235776 0 0 0 1.108302,1.123323 1.1081331,1.1235776 0 0 0 1.107765,-1.123323 1.1081331,1.1235776 0 0 0 0,-0.02843 v -6.802702 c 1.412562,0.301083 1.618049,1.885612 4.390831,1.849674 -2.014205,-0.06321 -2.261536,-2.8018695 -4.976096,-2.8018685 z" />
    <path
       id="ellipse4261"
       style="fill:#3e63dd;fill-opacity:1;fill-rule:evenodd;stroke:#3e63dd;stroke-width:0.666636;stroke-linecap:round;stroke-linejoin:miter;stroke-dasharray:none;stroke-opacity:1;paint-order:markers stroke fill;stop-color:#000000"
       d="m 22.719927,11.841301 c -0.162163,0 -0.2929,0.130737 -0.2929,0.292901 v 6.311851 a 1.1081331,1.1235776 0 0 0 -0.522502,-0.133039 1.1081331,1.1235776 0 0 0 -1.108302,1.123323 1.1081331,1.1235776 0 0 0 1.108302,1.123859 1.1081331,1.1235776 0 0 0 1.108304,-1.123859 1.1081331,1.1235776 0 0 0 -0.01717,-0.194731 c 0.01084,-0.03064 0.01717,-0.06372 0.01717,-0.09817 v -7.009234 c 0,-0.162164 -0.130738,-0.292901 -0.292902,-0.292901 z" />
    <path
       id="path8249"
       style="fill:#3e63dd;fill-opacity:1;fill-rule:evenodd;stroke:#000000;stroke-width:0.642;stroke-linecap:round;stroke-linejoin:round;stroke-dasharray:none;stroke-opacity:1;paint-order:markers stroke fill;stop-color:#000000"
       d="m -18.353896,16.341055 v 0.180867 0.690397 5.672006 a 1.067472,1.0823498 0 0 0 -0.503329,-0.128158 1.067472,1.0823498 0 0 0 -1.067635,1.082621 1.067472,1.0823498 0 0 0 1.067635,1.082105 1.067472,1.0823498 0 0 0 1.067119,-1.082105 1.067472,1.0823498 0 0 1 0,-5.16e-4 1.067472,1.0823498 0 0 0 0,-0.02739 V 17.25831 c 1.360726,0.290037 1.558678,1.815906 4.229715,1.781287 -1.940297,-0.06089 -2.178553,-2.698543 -4.793505,-2.698542 z" />
    <path
       id="path8251"
       style="fill:#3e63dd;fill-opacity:1;fill-rule:evenodd;stroke:#000000;stroke-width:0.642;stroke-linecap:round;stroke-linejoin:round;stroke-dasharray:none;stroke-opacity:1;paint-order:markers stroke fill;stop-color:#000000"
       d="m -12.156522,14.671719 v 0.181384 0.68988 5.672005 a 1.067472,1.0823498 0 0 0 -0.503328,-0.128158 1.067472,1.0823498 0 0 0 -1.067635,1.082622 1.067472,1.0823498 0 0 0 1.067635,1.082104 1.067472,1.0823498 0 0 0 1.067118,-1.082104 1.067472,1.0823498 0 0 0 0,-0.02739 v -6.553088 c 1.36073,0.290035 1.558677,1.816422 4.2297165,1.781803 -1.940297,-0.06089 -2.178552,-2.699059 -4.7935065,-2.699058 z" />
    <path
       id="path8253"
       style="fill:#3e63dd;fill-opacity:1;fill-rule:evenodd;stroke:#000000;stroke-width:0.642175;stroke-linecap:round;stroke-linejoin:miter;stroke-dasharray:none;stroke-opacity:1;paint-order:markers stroke fill;stop-color:#000000"
       d="m -4.9971115,16.521836 c -0.156213,0 -0.282153,0.12594 -0.282153,0.282153 v 6.080249 a 1.067472,1.0823498 0 0 0 -0.503329,-0.128158 1.067472,1.0823498 0 0 0 -1.067635,1.082105 1.067472,1.0823498 0 0 0 1.067635,1.082621 1.067472,1.0823498 0 0 0 1.067636,-1.082621 1.067472,1.0823498 0 0 0 -0.01654,-0.187586 c 0.01044,-0.02952 0.01654,-0.06138 0.01654,-0.09457 v -6.75204 c 0,-0.156213 -0.125941,-0.282153 -0.282154,-0.282153 z" />
  </g>
</svg>
